
<svg width="24" height="30" viewBox="0 0 24 30" fill="none" xmlns="http://www.w3.org/2000/svg">
<g id="&#227;&#130;&#176;&#227;&#131;&#171;&#227;&#131;&#188;&#227;&#131;&#151; 25" clip-path="url(#clip0_31972_774)">
<path id="&#227;&#131;&#145;&#227;&#130;&#185; 31" d="M7.2522 13.468L6.43994 14.0223C6.95923 14.7839 7.62182 15.4266 8.38086 15.9232L8.91895 15.0994C8.26661 14.6732 7.69825 14.1201 7.2522 13.468Z" fill="#FF963C"/>
<path id="&#227;&#131;&#145;&#227;&#130;&#185; 32" d="M10.7858 4.71515C11.1978 4.62921 11.6062 4.58795 12.01 4.58795C12.3806 4.58795 12.7466 4.62213 13.1033 4.68915L13.2845 3.7229C12.8679 3.64532 12.4419 3.604 12.01 3.604C11.5403 3.604 11.0624 3.65228 10.5858 3.75116L10.567 3.75592L10.7695 4.71747L10.7858 4.71515Z" fill="#FF963C"/>
<path id="&#227;&#131;&#145;&#227;&#130;&#185; 33" d="M8.81811 5.46692L8.26245 4.65601C7.5022 5.17615 6.85962 5.83887 6.36401 6.59803L7.18798 7.13587C7.61278 6.48377 8.16601 5.91297 8.81811 5.46692Z" fill="#FF963C"/>
<path id="&#227;&#131;&#145;&#227;&#130;&#185; 34" d="M6.27393 10.2434C6.27393 9.87151 6.30909 9.50433 6.37622 9.14532L5.41016 8.96411C5.33106 9.3819 5.29004 9.8092 5.29004 10.2434C5.29004 10.7142 5.33814 11.1909 5.43823 11.6687L5.44067 11.6805L6.40332 11.4792L6.40088 11.4687C6.31494 11.0568 6.27393 10.6472 6.27393 10.2434V10.2434Z" fill="#FF963C"/>
<path id="&#227;&#131;&#145;&#227;&#130;&#185; 35" d="M13.2145 15.8911C12.8024 15.977 12.3939 16.0182 11.9903 16.0182C11.6161 16.0182 11.2464 15.983 10.8863 15.9146L10.704 16.8809C11.1229 16.9598 11.5538 17.001 11.9904 17.001C12.4598 17.001 12.9366 16.9527 13.4144 16.8539L13.4203 16.8526L13.2201 15.8899L13.2145 15.8911Z" fill="#FF963C"/>
<path id="&#227;&#131;&#145;&#227;&#130;&#185; 36" d="M18.5614 8.83667L18.5568 8.81299L17.594 9.0166L17.5986 9.03784C17.6846 9.44861 17.7258 9.85815 17.7258 10.2618C17.7258 10.6385 17.6893 11.0093 17.621 11.3706L18.5874 11.5542C18.6674 11.1328 18.7085 10.7008 18.7085 10.2618C18.7085 9.79223 18.6616 9.31444 18.5614 8.83666V8.83667Z" fill="#FF963C"/>
<path id="&#227;&#131;&#145;&#227;&#130;&#185; 37" d="M15.173 15.0415L15.7273 15.8536C16.4888 15.3346 17.1326 14.672 17.6292 13.9139L16.8065 13.375C16.3793 14.027 15.8262 14.5956 15.173 15.0415L15.173 15.0415Z" fill="#FF963C"/>
<path id="&#227;&#131;&#145;&#227;&#130;&#185; 38" d="M16.7421 7.02496L17.5531 6.46936C17.0317 5.70905 16.3678 5.06641 15.6086 4.57202L15.072 5.39593C15.7252 5.82086 16.2949 6.3728 16.7421 7.02496Z" fill="#FF963C"/>
<path id="&#227;&#131;&#145;&#227;&#130;&#185; 39" d="M15.3721 9.13989L13.0415 8.80139L11.9995 6.68994L10.9575 8.80139L8.62695 9.13989L10.3132 10.7837L9.91528 13.1044L11.9995 12.0087L14.0837 13.1044L13.6858 10.7837L15.3721 9.13989Z" fill="#FF963C"/>
<path id="&#227;&#131;&#145;&#227;&#130;&#185; 40" fill-rule="evenodd" clip-rule="evenodd" d="M22.1128 10.5726C22.1128 7.65613 20.979 5.00561 19.1521 3.09534C18.1625 2.06079 16.9657 1.23926 15.6339 0.70374C14.5046 0.2483 13.2798 0 12.001 0C10.7119 0 9.47461 0.25293 8.33875 0.71558C7.01709 1.2522 5.83167 2.06787 4.84888 3.09534C3.02173 5.00562 1.88794 7.65613 1.88794 10.5726C1.88794 13.4879 3.02173 16.1361 4.84888 18.0463C6.67603 19.9589 9.21118 21.144 12.001 21.144C14.7895 21.144 17.3248 19.9589 19.1521 18.0463C20.979 16.1361 22.1128 13.4879 22.1128 10.5726ZM12.001 19.1774C9.7246 19.1774 7.67346 18.217 6.17956 16.6575C4.68896 15.0957 3.76928 12.9524 3.76928 10.5726C3.76928 8.19287 4.68896 6.04602 6.17956 4.48767C7.15331 3.47192 8.3623 2.70935 9.71899 2.3009C10.4416 2.08557 11.2084 1.96789 12.001 1.96789C12.7811 1.96789 13.5365 2.07958 14.2513 2.29382C15.6193 2.69751 16.8406 3.46496 17.8213 4.48767C19.3119 6.04602 20.2316 8.19287 20.2316 10.5726C20.2316 12.9524 19.3119 15.0957 17.8213 16.6575C16.3273 18.217 14.2773 19.1774 12.001 19.1774H12.001Z" fill="#FF963C"/>
<path id="&#227;&#131;&#145;&#227;&#130;&#185; 41" d="M4.73693 19.2417C4.5841 19.118 4.42992 18.9956 4.28161 18.8638L4.28051 18.8674L4.26867 18.8579L0.60461 26.7047L0.5 26.986L0.63892 27.206C0.73902 27.3591 0.90125 27.4498 1.08265 27.4498H1.16847L4.67006 26.3611L6.05519 29.6754C6.14125 29.8707 6.32704 30.0002 6.54262 30.0002C6.74733 30.0002 6.93337 29.8802 7.01918 29.6942L9.85341 23.6258L10.6901 21.8428L10.6867 21.8415L10.6925 21.8274C8.46107 21.5096 6.4225 20.5869 4.73695 19.2417L4.73693 19.2417Z" fill="#FF963C"/>
<path id="&#227;&#131;&#145;&#227;&#130;&#185; 42" d="M20.5542 20.6375L19.7314 18.8685L19.728 18.8709L19.7222 18.8579C18.0745 20.3091 16.0334 21.3248 13.7903 21.7356C13.6323 21.7639 13.4761 21.7957 13.3159 21.8168L13.3171 21.8203L13.303 21.8239L16.9763 29.6942C17.062 29.8814 17.248 30.0002 17.4529 30.0002C17.6685 30.0002 17.8542 29.8707 17.9402 29.6754L19.3254 26.3611L22.7598 27.4262L22.8408 27.4498H22.9128C23.094 27.4498 23.2563 27.3591 23.3564 27.2061L23.5002 26.939L20.5542 20.6375Z" fill="#FF963C"/>
</g>
<defs>
<clipPath id="clip0_31972_774">
<rect width="23.0002" height="30.0003" fill="white" transform="translate(0.5)"/>
</clipPath>
</defs>
</svg>
